<svg xmlns="http://www.w3.org/2000/svg" xmlns:xlink="http://www.w3.org/1999/xlink" width="1080" zoomAndPan="magnify" viewBox="0 0 810 809.999993" height="1080" preserveAspectRatio="xMidYMid meet" version="1.0"><defs><g/><clipPath id="c98f774604"><path d="M 46.335938 278.183594 L 175.335938 278.183594 L 175.335938 531.683594 L 46.335938 531.683594 Z M 46.335938 278.183594 " clip-rule="nonzero"/></clipPath><clipPath id="0db1449fc6"><path d="M 46.335938 278.183594 L 122 278.183594 L 122 531.683594 L 46.335938 531.683594 Z M 46.335938 278.183594 " clip-rule="nonzero"/></clipPath><clipPath id="d607c2a19e"><rect x="0" width="620" y="0" height="186"/></clipPath></defs><g clip-path="url(#c98f774604)"><path fill="#fedd2b" d="M 110.289062 278.183594 L 175.316406 278.183594 L 123.742188 365.601562 L 161.859375 365.601562 L 46.382812 531.683594 L 97.957031 402.871094 L 56.476562 404.921875 Z M 110.289062 278.183594 " fill-opacity="1" fill-rule="nonzero"/></g><g clip-path="url(#0db1449fc6)"><path fill="#f8cf29" d="M 110.289062 278.183594 L 121.5 278.183594 L 56.476562 404.921875 Z M 46.382812 531.683594 L 105.804688 402.871094 L 97.957031 402.871094 Z M 46.382812 531.683594 " fill-opacity="1" fill-rule="nonzero"/></g><g transform="matrix(1, 0, 0, 1, 175, 312)"><g clip-path="url(#d607c2a19e)"><g fill="#38b6ff" fill-opacity="1"><g transform="translate(0.458291, 141.323729)"><g><path d="M 46.171875 1.375 C 40.785156 1.375 35.765625 0.742188 31.109375 -0.515625 C 26.453125 -1.785156 22.289062 -3.648438 18.625 -6.109375 C 14.96875 -8.578125 11.960938 -11.609375 9.609375 -15.203125 C 7.253906 -18.796875 5.6875 -22.945312 4.90625 -27.65625 L 25.4375 -32.34375 C 26.914062 -26.632812 29.492188 -22.40625 33.171875 -19.65625 C 36.859375 -16.914062 41.304688 -15.546875 46.515625 -15.546875 C 49.460938 -15.546875 52.113281 -15.972656 54.46875 -16.828125 C 56.820312 -17.679688 58.675781 -18.984375 60.03125 -20.734375 C 61.394531 -22.484375 62.050781 -24.695312 62 -27.375 C 62 -29.8125 61.351562 -31.867188 60.0625 -33.546875 C 58.769531 -35.234375 57.039062 -36.675781 54.875 -37.875 C 52.71875 -39.070312 50.242188 -40.128906 47.453125 -41.046875 C 44.660156 -41.972656 41.742188 -42.898438 38.703125 -43.828125 C 35.753906 -44.742188 32.828125 -45.71875 29.921875 -46.75 C 27.023438 -47.789062 24.285156 -49.023438 21.703125 -50.453125 C 19.117188 -51.890625 16.820312 -53.597656 14.8125 -55.578125 C 12.8125 -57.554688 11.234375 -59.914062 10.078125 -62.65625 C 8.929688 -65.394531 8.359375 -68.632812 8.359375 -72.375 C 8.359375 -76.976562 9.242188 -81.066406 11.015625 -84.640625 C 12.796875 -88.210938 15.273438 -91.226562 18.453125 -93.6875 C 21.628906 -96.15625 25.359375 -98.035156 29.640625 -99.328125 C 33.929688 -100.617188 38.585938 -101.265625 43.609375 -101.265625 C 47.992188 -101.265625 52.304688 -100.789062 56.546875 -99.84375 C 60.785156 -98.90625 64.710938 -97.394531 68.328125 -95.3125 C 71.941406 -93.238281 75.015625 -90.53125 77.546875 -87.1875 C 80.085938 -83.851562 81.863281 -79.789062 82.875 -75 L 64.078125 -70.359375 C 62.503906 -75.160156 60.082031 -78.6875 56.8125 -80.9375 C 53.539062 -83.195312 49.554688 -84.328125 44.859375 -84.328125 C 42.097656 -84.328125 39.539062 -83.921875 37.1875 -83.109375 C 34.832031 -82.304688 32.941406 -81.085938 31.515625 -79.453125 C 30.085938 -77.816406 29.375 -75.707031 29.375 -73.125 C 29.375 -71.050781 29.9375 -69.300781 31.0625 -67.875 C 32.195312 -66.445312 33.742188 -65.222656 35.703125 -64.203125 C 37.660156 -63.191406 39.914062 -62.285156 42.46875 -61.484375 C 45.03125 -60.679688 47.71875 -59.863281 50.53125 -59.03125 C 53.570312 -58.101562 56.644531 -57.097656 59.75 -56.015625 C 62.863281 -54.941406 65.828125 -53.65625 68.640625 -52.15625 C 71.453125 -50.65625 73.972656 -48.832031 76.203125 -46.6875 C 78.441406 -44.550781 80.207031 -41.992188 81.5 -39.015625 C 82.789062 -36.046875 83.4375 -32.535156 83.4375 -28.484375 C 83.4375 -23.734375 82.523438 -19.503906 80.703125 -15.796875 C 78.878906 -12.085938 76.296875 -8.953125 72.953125 -6.390625 C 69.617188 -3.835938 65.679688 -1.90625 61.140625 -0.59375 C 56.597656 0.71875 51.609375 1.375 46.171875 1.375 Z M 46.171875 1.375 "/></g></g><g transform="translate(90.113463, 141.323729)"><g><path d="M 20.453125 -81.703125 C 18.378906 -81.703125 16.46875 -82.21875 14.71875 -83.25 C 12.96875 -84.289062 11.5625 -85.675781 10.5 -87.40625 C 9.445312 -89.132812 8.921875 -91.054688 8.921875 -93.171875 C 8.921875 -95.296875 9.445312 -97.207031 10.5 -98.90625 C 11.5625 -100.613281 12.96875 -101.984375 14.71875 -103.015625 C 16.46875 -104.054688 18.378906 -104.578125 20.453125 -104.578125 C 22.535156 -104.578125 24.4375 -104.054688 26.15625 -103.015625 C 27.882812 -101.984375 29.265625 -100.613281 30.296875 -98.90625 C 31.335938 -97.207031 31.859375 -95.296875 31.859375 -93.171875 C 31.859375 -91.054688 31.335938 -89.132812 30.296875 -87.40625 C 29.265625 -85.675781 27.882812 -84.289062 26.15625 -83.25 C 24.4375 -82.21875 22.535156 -81.703125 20.453125 -81.703125 Z M 10.296875 0 L 10.296875 -71.0625 L 30.34375 -71.0625 L 30.34375 0 Z M 10.296875 0 "/></g></g><g transform="translate(130.758986, 141.323729)"><g><path d="M 28.125 1.375 C 24.257812 1.375 20.054688 0.820312 15.515625 -0.28125 C 10.972656 -1.382812 6.378906 -3.132812 1.734375 -5.53125 L 10.5 -22.609375 C 12.945312 -20.898438 15.398438 -19.582031 17.859375 -18.65625 C 20.328125 -17.738281 22.921875 -17.28125 25.640625 -17.28125 C 29.742188 -17.28125 32.820312 -18.582031 34.875 -21.1875 C 36.925781 -23.789062 37.953125 -28.019531 37.953125 -33.875 L 37.953125 -99.875 L 58.6875 -99.875 L 58.6875 -30 C 58.6875 -23.175781 57.394531 -17.4375 54.8125 -12.78125 C 52.226562 -8.132812 48.644531 -4.613281 44.0625 -2.21875 C 39.476562 0.175781 34.164062 1.375 28.125 1.375 Z M 28.125 1.375 "/></g></g><g transform="translate(200.782649, 141.323729)"><g><path d="M 79.765625 0 L 72.515625 -20.59375 L 30.546875 -20.59375 L 23.296875 0 L 2.078125 0 L 38.84375 -99.875 L 64.21875 -99.875 L 100.984375 0 Z M 36.640625 -37.953125 L 66.421875 -37.953125 L 51.5625 -80.3125 Z M 36.640625 -37.953125 "/></g></g></g><g fill="#38b6ff" fill-opacity="1"><g transform="translate(298.871081, 141.323729)"><g><path d="M 56.125 1.375 C 48.9375 1.375 42.289062 0.191406 36.1875 -2.171875 C 30.082031 -4.546875 24.78125 -7.96875 20.28125 -12.4375 C 15.789062 -16.90625 12.300781 -22.285156 9.8125 -28.578125 C 7.320312 -34.867188 6.078125 -41.910156 6.078125 -49.703125 C 6.078125 -57.578125 7.34375 -64.691406 9.875 -71.046875 C 12.414062 -77.410156 15.988281 -82.835938 20.59375 -87.328125 C 25.207031 -91.828125 30.625 -95.273438 36.84375 -97.671875 C 43.0625 -100.066406 49.835938 -101.265625 57.171875 -101.265625 C 63.617188 -101.265625 69.628906 -100.34375 75.203125 -98.5 C 80.773438 -96.65625 85.757812 -93.992188 90.15625 -90.515625 C 94.5625 -87.035156 98.21875 -82.785156 101.125 -77.765625 L 83.359375 -68.21875 C 80.546875 -73.289062 76.867188 -77.054688 72.328125 -79.515625 C 67.796875 -81.984375 62.742188 -83.21875 57.171875 -83.21875 C 52.835938 -83.21875 48.835938 -82.492188 45.171875 -81.046875 C 41.503906 -79.597656 38.300781 -77.46875 35.5625 -74.65625 C 32.820312 -71.84375 30.691406 -68.382812 29.171875 -64.28125 C 27.648438 -60.175781 26.890625 -55.476562 26.890625 -50.1875 C 26.890625 -43.40625 28.164062 -37.503906 30.71875 -32.484375 C 33.28125 -27.460938 36.890625 -23.566406 41.546875 -20.796875 C 46.203125 -18.035156 51.660156 -16.65625 57.921875 -16.65625 C 62.210938 -16.65625 66.257812 -17.390625 70.0625 -18.859375 C 73.863281 -20.335938 77.125 -22.617188 79.84375 -25.703125 C 82.5625 -28.796875 84.378906 -32.765625 85.296875 -37.609375 L 58 -37.609375 L 58 -54.265625 L 104.921875 -54.265625 L 104.921875 0 L 88.609375 0 L 88.609375 -13.828125 C 85.390625 -9.078125 81.082031 -5.351562 75.6875 -2.65625 C 70.300781 0.03125 63.78125 1.375 56.125 1.375 Z M 56.125 1.375 "/></g></g><g transform="translate(412.374391, 141.323729)"><g><path d="M 79.765625 0 L 72.515625 -20.59375 L 30.546875 -20.59375 L 23.296875 0 L 2.078125 0 L 38.84375 -99.875 L 64.21875 -99.875 L 100.984375 0 Z M 36.640625 -37.953125 L 66.421875 -37.953125 L 51.5625 -80.3125 Z M 36.640625 -37.953125 "/></g></g><g transform="translate(515.439821, 141.323729)"><g><path d="M 12.921875 0 L 12.921875 -99.875 L 49.078125 -99.875 C 57.046875 -99.875 64.003906 -98.6875 69.953125 -96.3125 C 75.898438 -93.945312 80.851562 -90.550781 84.8125 -86.125 C 88.769531 -81.695312 91.738281 -76.429688 93.71875 -70.328125 C 95.707031 -64.222656 96.703125 -57.4375 96.703125 -49.96875 C 96.703125 -42.507812 95.707031 -35.710938 93.71875 -29.578125 C 91.738281 -23.453125 88.769531 -18.175781 84.8125 -13.75 C 80.851562 -9.332031 75.898438 -5.9375 69.953125 -3.5625 C 64.003906 -1.1875 57.046875 0 49.078125 0 Z M 33.65625 -18.3125 L 48.046875 -18.3125 C 57.253906 -18.3125 64.023438 -21.066406 68.359375 -26.578125 C 72.691406 -32.085938 74.859375 -39.882812 74.859375 -49.96875 C 74.859375 -60.0625 72.691406 -67.863281 68.359375 -73.375 C 64.023438 -78.882812 57.253906 -81.640625 48.046875 -81.640625 L 33.65625 -81.640625 Z M 33.65625 -18.3125 "/></g></g></g></g></g></svg>